<?xml version="1.0" encoding="UTF-8"?>
<svg t="1625643105648" width="16px" height="16px" class="icon" viewBox="0 0 16 16" version="1.1" xmlns="http://www.w3.org/2000/svg" xmlns:xlink="http://www.w3.org/1999/xlink" p-id="1604">
    <title></title>
    <g id="common/import" stroke="none" stroke-width="1" fill="none" fill-rule="evenodd">
        <g id="import">
            <rect id="矩形" x="0" y="0" width="16" height="16"></rect>
            <path d="M14.5,8.16453671 C14.7982338,8.16453671 15.0456468,8.38212632 15.092147,8.66721359 L15.1,8.76453671 L15.1,13.2470075 C15.1,14.0815711 14.4610385,14.7668973 13.6456326,14.8404688 L13.5,14.8470075 L2.5,14.8470075 C1.66543638,14.8470075 0.980110215,14.208046 0.906538677,13.3926401 L0.9,13.2470075 L0.9,8.76453671 L0.907852987,8.66721359 C0.954353247,8.38212632 1.20176624,8.16453671 1.5,8.16453671 C1.79823376,8.16453671 2.04564675,8.38212632 2.09214701,8.66721359 L2.1,8.76453671 L2.1,13.2470075 C2.1,13.4403072 2.2371128,13.6015824 2.41938605,13.6388809 L2.5,13.6470075 L13.5,13.6470075 C13.6932997,13.6470075 13.8545749,13.5098947 13.8918734,13.3276215 L13.9,13.2470075 L13.9,8.76453671 C13.9,8.43316586 14.1686292,8.16453671 14.5,8.16453671 Z M8,1.15299249 L8.09732312,1.16084547 C8.38241039,1.20734573 8.6,1.45475872 8.6,1.75299249 L8.6,1.75299249 L8.59946609,8.30499249 L11.1112698,5.79319451 L11.1943673,5.72376797 C11.4282091,5.56177271 11.7515184,5.58491489 11.959798,5.79319451 C12.1941125,6.02750909 12.1941125,6.40740808 11.959798,6.64172265 L11.959798,6.64172265 L8.42426407,10.1772566 L8.35435221,10.2372273 C8.35148795,10.2393268 8.34860438,10.2414016 8.3411666,10.2466831 L8.3411666,10.2466831 L8.31874157,10.2614827 L8.27573454,10.2860216 C8.26965463,10.2891731 8.26351395,10.2922236 8.25696212,10.2953638 C8.25454129,10.2965107 8.25211438,10.2976404 8.24968156,10.298753 L8.24968156,10.298753 L8.22627184,10.308859 L8.18964641,10.3224041 C8.18227556,10.3248578 8.17484115,10.3271724 8.16741791,10.329278 C8.16236206,10.3307419 8.15729074,10.332138 8.15220539,10.3334663 L8.15220539,10.3334663 L8.1284246,10.3391628 L8.09732312,10.3451395 L8.09732312,10.3451395 L8.06930383,10.3490006 C8.06325525,10.3496999 8.05719806,10.3503074 8.05113454,10.3508229 L8.05113454,10.3508229 L8.02853424,10.3523259 L8.02853424,10.3523259 L8,10.3529925 L8,10.3529925 L7.942,10.3489925 L7.945,10.3499925 L7.93069617,10.3490006 L7.93462339,10.3494718 L7.87128591,10.3391536 L7.84779461,10.3334663 C7.84270926,10.332138 7.83763794,10.3307419 7.83265371,10.3293448 C7.81247292,10.3234954 7.79273038,10.3166148 7.77348688,10.3087638 L7.77348688,10.3087638 L7.75031844,10.298753 C7.74788562,10.2976404 7.74545871,10.2965107 7.74268528,10.295171 C7.72137698,10.2850402 7.70076045,10.2736903 7.68092586,10.2612113 L7.68092586,10.2612113 L7.6588334,10.2466831 C7.65742471,10.2457072 7.65601927,10.2447246 7.6542982,10.2434512 C7.65139562,10.2414016 7.64851205,10.2393268 7.64564779,10.2372273 L7.64564779,10.2372273 L7.57573593,10.1772566 L4.04020203,6.64172265 C3.80588745,6.40740808 3.80588745,6.02750909 4.04020203,5.79319451 C4.2745166,5.55887994 4.65441559,5.55887994 4.88873016,5.79319451 L4.88873016,5.79319451 L7.39946609,8.30499249 L7.4,1.75299249 L7.40785299,1.65566937 C7.45435325,1.3705821 7.70176624,1.15299249 8,1.15299249 L8,1.15299249 Z" id="形状结合" fill="#a7a7a7" fill-rule="nonzero"></path>
        </g>
    </g>
</svg>
